<svg width="18" height="17" viewBox="0 0 9 6" fill="none" xmlns="http://www.w3.org/2000/svg">
<path d="M1.25793 1.11617C1.25793 0.945503 1.32573 0.781822 1.44642 0.661138C1.5671 0.540455 1.73078 0.472656 1.90145 0.472656H7.0496C7.22027 0.472656 7.38395 0.540455 7.50464 0.661138C7.62532 0.781822 7.69312 0.945503 7.69312 1.11617V4.97729C7.69312 5.14796 7.62532 5.31164 7.50464 5.43232C7.38395 5.55301 7.22027 5.6208 7.0496 5.6208H1.90145C1.73078 5.6208 1.5671 5.55301 1.44642 5.43232C1.32573 5.31164 1.25793 5.14796 1.25793 4.97729V1.11617Z" stroke="white" stroke-width="0.772222" stroke-linecap="round" stroke-linejoin="round"/>
<path d="M1.25793 1.76025L3.67145 3.69113C3.89967 3.87373 4.18325 3.97322 4.47553 3.97322C4.76781 3.97322 5.05138 3.87373 5.2796 3.69113L7.69312 1.76025" stroke="white" stroke-width="0.772222" stroke-linecap="round" stroke-linejoin="round"/>
</svg>
