<svg width="20" height="19" viewBox="0 0 9 8" fill="none" xmlns="http://www.w3.org/2000/svg">
<path d="M4.00948 2.11214L2.92097 0.855672C2.79549 0.71088 2.56543 0.711524 2.41967 0.857602L1.52454 1.75435C1.25812 2.02108 1.18186 2.41717 1.33599 2.73475C2.25674 4.64116 3.79424 6.18082 5.69936 7.10424C6.01662 7.25836 6.41238 7.1821 6.6788 6.91536L7.5823 6.01026C7.7287 5.86385 7.72902 5.63251 7.58294 5.50702L6.32165 4.4243C6.18972 4.31104 5.98476 4.32585 5.85252 4.45841L5.41364 4.89793C5.39117 4.92148 5.3616 4.937 5.32945 4.94212C5.29731 4.94723 5.26438 4.94166 5.23571 4.92625C4.51833 4.51314 3.92325 3.91728 3.51108 3.19937C3.49564 3.17065 3.49005 3.13766 3.49517 3.10546C3.50028 3.07326 3.51582 3.04363 3.53939 3.02111L3.97699 2.5832C4.10955 2.44999 4.12403 2.24406 4.00948 2.11182V2.11214Z" stroke="white" stroke-width="0.772222" stroke-linecap="round" stroke-linejoin="round"/>
</svg>
